<?xml version="1.0" encoding="UTF-8" standalone="no"?>
<!-- Created with Inkscape (http://www.inkscape.org/) -->

<svg
   xmlns:dc="http://purl.org/dc/elements/1.1/"
   xmlns:cc="http://creativecommons.org/ns#"
   xmlns:rdf="http://www.w3.org/1999/02/22-rdf-syntax-ns#"
   xmlns:svg="http://www.w3.org/2000/svg"
   xmlns="http://www.w3.org/2000/svg"
   xmlns:sodipodi="http://sodipodi.sourceforge.net/DTD/sodipodi-0.dtd"
   xmlns:inkscape="http://www.inkscape.org/namespaces/inkscape"
   width="16"
   height="16"
   id="svg3027"
   version="1.1"
   inkscape:version="0.48.2 r9819"
   sodipodi:docname="favicon.svg"
   inkscape:export-filename="/home/payload/Pictures/codespring/favicon.png"
   inkscape:export-xdpi="90"
   inkscape:export-ydpi="90">
  <defs
     id="defs3029" />
  <sodipodi:namedview
     id="base"
     pagecolor="#ffffff"
     bordercolor="#666666"
     borderopacity="1.0"
     inkscape:pageopacity="0.0"
     inkscape:pageshadow="2"
     inkscape:zoom="11.2"
     inkscape:cx="2.7444423"
     inkscape:cy="1.8564829"
     inkscape:document-units="px"
     inkscape:current-layer="g3054"
     showgrid="false"
     fit-margin-top="0"
     fit-margin-left="0"
     fit-margin-right="0"
     fit-margin-bottom="0"
     inkscape:window-width="1000"
     inkscape:window-height="582"
     inkscape:window-x="0"
     inkscape:window-y="0"
     inkscape:window-maximized="1" />
  <metadata
     id="metadata3032">
    <rdf:RDF>
      <cc:Work
         rdf:about="">
        <dc:format>image/svg+xml</dc:format>
        <dc:type
           rdf:resource="http://purl.org/dc/dcmitype/StillImage" />
        <dc:title />
      </cc:Work>
    </rdf:RDF>
  </metadata>
  <g
     inkscape:label="Layer 1"
     inkscape:groupmode="layer"
     id="layer1"
     transform="translate(-381.2436,-237.13575)">
    <g
       transform="translate(260.6683,111.81359)"
       id="g3882">
      <g
         id="g3054"
         transform="matrix(0.8,0,0,0.8,26.252798,27.740431)">
        <g
           style="font-size:20px;font-style:normal;font-variant:normal;font-weight:500;font-stretch:normal;line-height:125%;letter-spacing:0px;word-spacing:0px;fill:#000057;fill-opacity:1;stroke:none;font-family:Delicious;-inkscape-font-specification:Delicious Medium"
           id="text2985-5-7">
          <path
             d="m 120.5753,129.71217 0,0 c 0,3.91999 3.26001,7.1 7.26,7.12 l 0,0 c 1.72,0 3.28,-0.6 4.54,-1.54 l 0,0 c 0.12,-0.1 0.16,-0.26 0.06,-0.36 l 0,0 c -0.1,-0.12 -0.26,-0.12 -0.38,-0.04 l 0,0 0,0 c -1.16,0.9 -2.62,1.42 -4.22,1.42 l 0,0 c -3.69999,0 -6.74,-2.94001 -6.74,-6.6 l 0,0 c 0,-3.62 3.04001,-6.56 6.74,-6.56 l 0,0 c 1.62,0 3.08,0.52 4.24,1.42 l 0,0 c 0.1,0.1 0.26,0.08 0.38,-0.04 l 0,0 c 0.08,-0.1 0.04,-0.26 -0.08,-0.36 l 0,0 c -1.22,-0.94 -2.82,-1.54 -4.54,-1.54 l 0,0 c -3.99999,0 -7.26,3.2 -7.26,7.08"
             style="font-size:20px;font-weight:300;text-align:start;line-height:125%;writing-mode:lr-tb;text-anchor:start;fill:#575757;font-family:Quicksand;-inkscape-font-specification:Quicksand Light"
             id="path3186" />
        </g>
        <g
           style="font-size:20px;font-style:normal;font-variant:normal;font-weight:500;font-stretch:normal;line-height:125%;letter-spacing:0px;word-spacing:0px;fill:#000057;fill-opacity:1;stroke:none;font-family:Delicious;-inkscape-font-specification:Delicious Medium"
           id="text2985-5-0-9">
          <path
             d="m 124.89095,139.30215 0,0 c 1.16,0.92 3.02001,2 5.16,2.02 l 0,0 c 1.4,0 2.66,-0.42 3.6,-1.1 l 0,0 c 0.94,-0.67999 1.58,-1.68 1.58,-2.8 l 0,0 c 0,-1.11999 -0.62,-2.04 -1.54,-2.64 l 0,0 c -0.92,-0.61999 -2.16,-1.02 -3.56,-1.28 l -0.04,0 0,0 c -1.26,-0.24 -2.3,-0.58 -3,-1.06 l 0,0 c -0.7,-0.47999 -1.02,-1 -1.04,-1.7 l 0,0 c 0,-0.71999 0.4,-1.4 1.1,-1.92 l 0,0 c 0.7,-0.49999 1.72,-0.84 2.86,-0.84 l 0,0 c 1.54,0 2.74,0.76001 3.84,1.48 l 0,0 c 0.2,0.14 0.48,0.08 0.6,-0.12 l 0,0 c 0.14,-0.22 0.08,-0.48 -0.12,-0.62 l 0,0 c -1.1,-0.71999 -2.48,-1.62 -4.32,-1.62 l 0,0 c -1.32,0 -2.5,0.38001 -3.38,1.02 l 0,0 c -0.88,0.64 -1.46,1.56001 -1.46,2.62 l 0,0 c 0,1.04 0.58,1.88001 1.44,2.44 l 0,0 c 0.86,0.58 2,0.94 3.3,1.18 l 0.04,0 0,0 c 1.36,0.26 2.48,0.64001 3.24,1.14 l 0,0 c 0.76,0.52 1.14,1.12001 1.14,1.92 l 0,0 c 0,0.78 -0.42,1.52001 -1.2,2.08 l 0,0 c -0.76,0.56 -1.86,0.92 -3.08,0.92 l 0,0 c -1.82,0.02 -3.56,-0.96 -4.6,-1.8 l 0,0 c -0.18,-0.16 -0.46,-0.14 -0.62,0.06 l 0,0 c -0.14,0.18 -0.12,0.46 0.06,0.62"
             style="font-size:20px;text-align:start;line-height:125%;writing-mode:lr-tb;text-anchor:start;fill:#000057;font-family:Quicksand;-inkscape-font-specification:Quicksand"
             id="path3183" />
        </g>
      </g>
    </g>
  </g>
</svg>
